<svg xmlns="http://www.w3.org/2000/svg" aria-hidden="true" style="position:absolute;width:0;height:0;overflow:hidden">
  <defs>
    <symbol id="icon-antenna" viewBox="0 0 31 32">
      <path fill="#2e2f42" d="m30.277 22.098-8.307-8.505.922-4.615c.238.094.491.144.746.146h.006c1.173.014 2.135-.941 2.149-2.133s-.926-2.17-2.099-2.184c-1.173-.014-2.135.941-2.149 2.133-.003.255.039.509.123.749l-4.88.605L8.828.161C8.73.06 8.597.002 8.458.001c-.138.001-.27.056-.367.155L6.603 1.66c-.205.208-.205.546 0 .754l.801.826C4.302 9.038 5.309 16.218 9.883 20.903c.042.041.091.074.144.098-.033.18-.05.364-.051.547v6.187H3.679c-1.448.002-2.622 1.195-2.624 2.667v1.067c0 .294.235.533.525.533h24.138c.29 0 .525-.239.525-.533v-1.067c-.002-1.472-1.175-2.665-2.624-2.667h-6.297v-2.742c.986.21 1.992.317 2.999.32 2.418-.003 4.798-.615 6.926-1.783l.805.823c.098.101.231.159.37.16.138-.001.27-.056.367-.155l1.488-1.504c.205-.208.205-.546 0-.754zM22.904 6.233c.411-.415 1.075-.414 1.484.004s.407 1.093-.004 1.508c-.197.199-.463.31-.74.31h-.003c-.58-.003-1.047-.483-1.044-1.072.001-.282.113-.552.309-.751h-.002zm-1.235 3.505-.589 2.946-1.157-1.182 1.745-1.763zm-.596-.902-1.889 1.909-1.461-1.493 3.35-.415zM23.617 28.8c.869 0 1.574.716 1.574 1.6v.533H2.103V30.4c0-.884.705-1.6 1.574-1.6h19.94zm-7.346-2.133v1.067h-5.247v-1.067h5.247zM11.023 25.6v-4.053c0-1.294 1.177-2.347 2.624-2.347s2.624 1.053 2.624 2.347V25.6h-5.247zm6.297-1.696v-2.357c0-1.882-1.648-3.413-3.673-3.413-1.31-.02-2.534.657-3.228 1.786C6.427 15.646 5.528 9.275 8.177 4.033l18.302 18.708c-2.826 1.461-6.066 1.873-9.159 1.163zm11.107-.684L7.71 2.039l.742-.752 7.807 7.98c.004 0 .006.007.009.01l12.903 13.191-.745.752z" style="fill:var(--color1, #2e2f42)"/>
      <path fill="#4d5ae5" d="M13.652 20.267h-.005c-.869-.001-1.575.714-1.577 1.598s.702 1.601 1.572 1.602h.005c.869.001 1.575-.714 1.577-1.598s-.702-1.601-1.572-1.602zm.367 1.978c-.099.1-.233.156-.372.155-.29-.002-.524-.242-.522-.536.001-.141.056-.276.155-.375s.23-.154.367-.155c.29.002.523.242.522.536-.001.141-.056.276-.155.375h.005z" style="fill:var(--color2, #4d5ae5)"/>
    </symbol>
    <symbol id="icon-cosmos" viewBox="0 0 32 32">
      <path fill="#4d5ae5" d="M31.974 4.524c-.063-.193-.229-.333-.43-.363l-1.91-.278-.855-1.731c-.179-.365-.777-.365-.956 0l-.855 1.731-1.91.278c-.201.029-.367.17-.431.363-.062.193-.011.405.135.547l1.383 1.348-.326 1.903c-.034.2.048.402.212.522.166.121.382.135.562.04l1.709-.899 1.709.899c.078.041.164.061.249.061.11 0 .221-.034.314-.102.164-.119.246-.322.212-.522l-.326-1.903 1.383-1.348c.145-.142.197-.354.135-.547zm-2.463 1.327c-.125.122-.183.299-.153.472l.191 1.114-1-.526c-.078-.041-.163-.061-.249-.061s-.17.02-.249.061l-1.001.526.191-1.114c.03-.173-.028-.349-.153-.472l-.81-.789 1.119-.163c.174-.025.324-.134.402-.292l.5-1.013.5 1.013c.078.157.228.267.402.292l1.119.163-.809.789zm-3.378 14.671h-1.067v1.067h1.067v-1.067zm0 2.134h-1.067v1.067h1.067v-1.067zm1.067-1.067h-1.067v1.067H27.2v-1.067zm-2.133 0H24v1.067h1.067v-1.067zm-2.667 4.8h-1.067v1.067H22.4v-1.067zm0 2.133h-1.067v1.067H22.4v-1.067zm1.067-1.066H22.4v1.067h1.067v-1.067zm-2.134 0h-1.067v1.067h1.067v-1.067zM16 24.256h-1.067v1.067H16v-1.067zm0 2.133h-1.067v1.067H16v-1.067zm1.067-1.067H16v1.067h1.067v-1.067zm-2.134 0h-1.067v1.067h1.067v-1.067zm-9.066-19.2H4.8v1.067h1.067V6.122zm0 2.133H4.8v1.067h1.067V8.255z" style="fill:var(--color2, #4d5ae5)"/>
      <path fill="#4d5ae5" d="M6.933 7.189H5.866v1.067h1.067V7.189zm-2.133 0H3.733v1.067H4.8V7.189z" style="fill:var(--color2, #4d5ae5)"/>
      <path fill="#2e2f42" d="M23.663 15.249c-.275-.371-.679-.61-1.138-.675-.461-.065-.915.056-1.283.337l-1.199.919-1.817 1.357-1.3-.518c2.318-1.04 3.939-3.359 3.939-6.051 0-3.66-2.99-6.638-6.665-6.638s-6.665 2.978-6.665 6.638c0 1.327.397 2.56 1.072 3.598l-2.646-.023h-.005c-.008 0-.015.004-.022.005-.051.002-.1.012-.149.03-.012.005-.025.007-.037.013-.006.003-.012.003-.018.006l-3.096 1.528h-.001l-1.813.872c-.02.009-.04.02-.06.034-.723.481-.969 1.426-.573 2.198.211.411.57.713 1.011.851.17.053.344.079.516.079.277 0 .552-.068.804-.202l1.329-.707 2.168-1.119 1.299-.008-5.21 5.185c0 .001-.001.001-.002.001L.82 24.236c-.303.301-.469.701-.469 1.128s.166.827.469 1.129c.311.309.72.465 1.129.465s.818-.155 1.13-.465l1.258-1.253 1.667-1.244.862.859-1.687 1.68s-.001 0-.002.001l-1.282 1.277c-.303.301-.469.701-.469 1.128s.166.827.469 1.129c.311.309.721.465 1.13.465s.819-.155 1.13-.465l3.333-3.319c.001-.001.001-.001.001-.002l.967-.957-.004-.004c.006-.006.015-.008.021-.015l4.946-5.417 3.323.473c.024.004.048.005.072.005.062 0 .122-.015.179-.037.017-.006.032-.014.047-.022.018-.009.038-.014.055-.026l3.077-2.043c.011-.008.017-.02.028-.028.012-.01.028-.014.039-.025l1.217-1.14c.633-.593.721-1.566.203-2.261zM2.04 18.706c-.166.089-.354.107-.535.05-.179-.056-.324-.178-.409-.343-.154-.3-.065-.666.205-.863l1.258-.605.43 1.257-.95.505zm3.348-1.75-1.482.766-.42-1.229 1.94-.958-.038 1.421zm14.457-6.339c0 .879-.21 1.709-.573 2.451l-4.003-1.818c-.042-.549-.327-1.029-.755-1.329l1.402-4.653c2.276.724 3.93 2.848 3.93 5.35zm-11.287 0C8.558 7.52 11.09 5 14.202 5c.242 0 .479.02.713.05l-1.371 4.551c-.018-.001-.036-.006-.055-.006-.989 0-1.793.802-1.793 1.787s.804 1.787 1.793 1.787c.665 0 1.239-.367 1.549-.904l3.698 1.68c-1.029 1.385-2.676 2.288-4.535 2.288-3.112 0-5.644-2.52-5.644-5.617zm5.702.766c0 .422-.346.766-.772.766s-.772-.344-.772-.766c0-.422.346-.766.772-.766s.772.344.772.766zM2.36 25.768c-.226.224-.592.224-.818 0-.109-.109-.169-.252-.169-.405s.06-.296.169-.403l.921-.918.815.811-.918.914zm3.077 3.574c-.226.224-.593.225-.819.001-.109-.109-.168-.252-.168-.405s.06-.296.168-.403l.922-.918.816.811-.919.914zm3.334-3.321c-.001 0-.001 0-.002.001l-1.69 1.685-.816-.811 1.688-1.681s.001-.001.002-.001c.038-.038.062-.084.086-.13.007-.013.019-.025.025-.038.016-.039.018-.082.024-.123.003-.023.013-.045.013-.069 0-.034-.012-.067-.019-.101-.006-.031-.006-.062-.018-.091-.019-.048-.053-.09-.087-.132-.01-.011-.013-.026-.024-.036s-.001-.002-.001-.002L6.413 22.96c-.016-.016-.037-.023-.056-.037-.027-.021-.053-.04-.083-.055-.029-.014-.059-.023-.089-.031-.033-.009-.064-.016-.099-.019-.031-.002-.06.001-.091.005-.034.004-.066.009-.1.019-.032.01-.061.026-.09.043-.019.011-.04.014-.058.028L4.049 24.18l-.862-.859 2.297-2.285 4.175 4.106-.888.88zm6.528-6.718c-.015-.002-.029.004-.043.003-.037-.002-.073.001-.11.007-.029.005-.057.011-.084.02-.033.011-.062.027-.092.045-.029.017-.055.036-.08.059-.012.011-.027.016-.038.028l-4.498 4.927-4.144-4.075 2.713-2.698c.2-.199.201-.522.002-.723-.101-.101-.233-.15-.365-.15l-2.124.013.027-1.539 2.972.026c1.211 1.239 2.9 2.011 4.769 2.011.419 0 .827-.043 1.225-.117.038.031.076.062.124.081l2.307.919.146.726.171.848-2.875-.409zm3.869.171-.3-1.492 1.385-1.034.906 1.203-1.991 1.323zm3.594-2.711-.802.752-.892-1.184.796-.61c.149-.114.336-.161.52-.137.185.026.348.123.46.272.207.279.172.669-.082.907z" style="fill:var(--color1, #2e2f42)"/>
      <path fill="#2e2f42" d="m13.023 19.447-2.052-2.043c-.199-.199-.521-.199-.721 0l-2.051 2.043c-.096.096-.15.226-.15.362s.054.266.15.362l2.051 2.043c.1.099.23.149.361.149s.261-.05.36-.149l2.052-2.043c.096-.096.151-.226.151-.362s-.054-.266-.151-.362zm-2.412 1.684-1.328-1.322 1.328-1.322 1.328 1.322-1.328 1.322zm6.553-16.06-.258 1.036c.071.018 1.738.452 1.738 2.149h1.067c0-2.017-1.666-2.965-2.547-3.185zm1.708 5.546h-1.021v1.021h1.021v-1.021z" style="fill:var(--color1, #2e2f42)"/>
    </symbol>
    <symbol id="icon-clock" viewBox="0 0 31 32">
      <path fill="#2e2f42" d="M30.792 15.301C30.79 6.849 24.047-.002 15.731 0S.675 6.855.677 15.308c.001 6.658 4.237 12.551 10.478 14.576.06.019.122.029.184.029.119 0 .235-.033.337-.094.133-.08.232-.207.279-.356l3.803-12.25c1.04-.005 1.878-.866 1.872-1.923s-.852-1.909-1.892-1.903c-.28.001-.556.067-.807.191L9.907 8.471c-.249-.245-.646-.238-.887.016-.235.247-.235.639 0 .886l5.021 5.109c-.385.799-.165 1.764.528 2.309l-3.623 11.673C3.786 25.783.119 17.71 2.757 10.432S13.337-.572 20.498 2.109c7.16 2.681 10.827 10.754 8.189 18.032-1.289 3.556-3.936 6.431-7.342 7.973l-.392-1.874c-.072-.344-.405-.565-.744-.492-.107.023-.206.074-.288.148l-3.775 3.426c-.259.234-.282.637-.051.9.075.085.171.149.279.184l4.82 1.563c.33.108.683-.077.789-.412.034-.106.039-.219.017-.328l-.385-1.839c5.573-2.388 9.191-7.942 9.178-14.089zm-15.058-.637c.346 0 .627.286.627.638s-.281.638-.627.638c-.347 0-.627-.285-.627-.638s.281-.638.627-.638zm2.067 14.864 2.149-1.948.593 2.84-2.742-.892z" style="fill:var(--color1, #2e2f42)"/>
      <path fill="#4d5ae5" d="M15.107 3.185V4.46c0 .352.281.638.627.638s.627-.285.627-.638V3.185c0-.352-.281-.638-.627-.638s-.627.286-.627.638zM3.813 14.664c-.347 0-.627.286-.627.638s.281.638.627.638h1.255c.347 0 .627-.285.627-.638s-.281-.638-.627-.638H3.813zm23.842 1.275c.347 0 .627-.285.627-.638s-.281-.638-.627-.638H26.4c-.346 0-.627.286-.627.638s.281.638.627.638h1.255z" style="fill:var(--color2, #4d5ae5)"/>
    </symbol>
    <symbol id="icon-diagram" viewBox="0 0 32 32">
      <path fill="#4d5ae5" d="M14.925 14.965h1.066v4.798h-1.066v-4.797zm4.265 2.132h1.066v2.665H19.19v-2.665zm-8.529 1.599h1.066v1.066h-1.066v-1.066zm-3.198-.533h1.066v1.599H7.463v-1.599z" style="fill:var(--color2, #4d5ae5)"/>
      <path fill="#2e2f42" d="M1.524 28h24.387c.842 0 1.524-.686 1.524-1.531v-2.042c0-.846-.683-1.531-1.524-1.531h-.508V10.167l2.886-2.746c.67.332 1.48.13 1.919-.478s.377-1.444-.145-1.981-1.354-.616-1.968-.189c-.614.427-.833 1.237-.517 1.917l-2.174 2.071V7.583c0-.846-.682-1.531-1.524-1.531H3.557c-.842 0-1.524.686-1.524 1.531v15.312h-.508c-.842 0-1.524.686-1.524 1.531v2.042c0 .846.682 1.531 1.524 1.531zM28.96 5.542c.281 0 .508.229.508.51s-.227.51-.508.51-.508-.229-.508-.51.227-.51.508-.51zM3.048 7.584c0-.282.228-.51.508-.51h20.323c.281 0 .508.229.508.51v2.144l-1.016.97V8.605c0-.282-.227-.51-.508-.51H4.573c-.281 0-.508.229-.508.51v12.76c0 .282.228.51.508.51h18.29c.281 0 .508-.229.508-.51v-9.263l1.016-.967v11.762H3.048V7.585zm4.573 6.635c-.687-.002-1.291.458-1.474 1.124s.1 1.372.691 1.724c.591.352 1.344.264 1.838-.216l1.766.89c.205.103.454.055.607-.117l3.754-4.243 3.69 2.778c.198.149.474.133.654-.038l3.207-3.052v7.786H5.08V9.116h17.274v2.547l-3.595 3.42-3.721-2.803c-.211-.159-.509-.129-.684.069l-3.806 4.302-1.423-.715c.01-.061.017-.123.019-.185 0-.846-.682-1.531-1.524-1.531zm.508 1.531c0 .282-.228.51-.508.51s-.508-.229-.508-.51c0-.282.227-.51.508-.51s.508.229.508.51zm3.048 8.167h5.081v.51c0 .282-.227.51-.508.51h-4.064c-.281 0-.508-.229-.508-.51v-.51zm-10.161.51c0-.282.228-.51.508-.51h8.637v.51c0 .846.682 1.531 1.524 1.531h4.064c.842 0 1.524-.686 1.524-1.531v-.51h8.637c.281 0 .508.229.508.51v2.042c0 .282-.227.51-.508.51H1.523c-.281 0-.508-.229-.508-.51v-2.042z" style="fill:var(--color1, #2e2f42)"/>
    </symbol>
    <symbol id="icon-facebook" viewBox="0 0 32 32">
      <path d="M21.329 5.313h2.921V.225C23.746.156 22.013 0 19.994 0c-4.212 0-7.097 2.649-7.097 7.519V12H8.249v5.688h4.648V32h5.699V17.689h4.46l.708-5.688h-5.169V8.082c.001-1.644.444-2.769 2.735-2.769z"/>
    </symbol>
    <symbol id="icon-twitter" viewBox="0 0 38 32">
      <path d="M38.4 4.094c-1.428.626-2.95 1.042-4.536 1.243 1.632-.974 2.878-2.506 3.463-4.351-1.522.907-3.202 1.548-4.992 1.906C30.89 1.354 28.831.401 26.585.401c-4.358 0-7.867 3.538-7.867 7.874 0 .624.053 1.224.182 1.795-6.545-.319-12.336-3.456-16.226-8.234-.679 1.178-1.078 2.527-1.078 3.979 0 2.726 1.404 5.143 3.497 6.542-1.265-.024-2.506-.391-3.557-.97v.086c0 3.826 2.729 7.003 6.307 7.735-.641.175-1.339.259-2.064.259-.504 0-1.013-.029-1.49-.134 1.02 3.118 3.914 5.41 7.356 5.484-2.678 2.095-6.079 3.358-9.761 3.358-.646 0-1.265-.029-1.884-.108C3.487 30.316 7.62 31.6 12.077 31.6c14.486 0 22.406-12 22.406-22.402 0-.348-.012-.684-.029-1.018 1.562-1.109 2.875-2.494 3.946-4.087z"/>
    </symbol>
    <symbol id="icon-instagram" viewBox="0 0 32 32">
      <path d="M31.969 9.408c-.075-1.7-.35-2.869-.744-3.882-.406-1.075-1.031-2.038-1.851-2.838-.8-.813-1.769-1.444-2.832-1.844C25.523.45 24.361.175 22.66.1 20.947.019 20.403 0 16.059 0s-4.888.019-6.595.094c-1.7.075-2.869.35-3.882.744-1.075.406-2.038 1.031-2.838 1.85C1.931 3.488 1.3 4.457.9 5.52.506 6.539.231 7.702.156 9.402c-.081 1.713-.1 2.257-.1 6.601s.019 4.888.094 6.595c.075 1.7.35 2.869.744 3.882.406 1.075 1.038 2.038 1.85 2.838.8.813 1.769 1.444 2.832 1.844 1.019.394 2.182.669 3.882.744 1.706.075 2.25.094 6.595.094s4.888-.019 6.595-.094c1.7-.075 2.869-.35 3.882-.744 2.151-.831 3.851-2.532 4.682-4.682.394-1.019.669-2.182.744-3.882.075-1.707.094-2.25.094-6.595s-.006-4.888-.081-6.595zm-2.882 13.065c-.069 1.563-.331 2.407-.55 2.969-.538 1.394-1.644 2.501-3.038 3.038-.563.219-1.413.481-2.969.55-1.688.075-2.194.094-6.464.094s-4.782-.019-6.464-.094c-1.563-.069-2.407-.331-2.969-.55-.694-.256-1.325-.663-1.838-1.194-.531-.519-.938-1.144-1.194-1.838-.219-.563-.481-1.413-.55-2.969-.075-1.688-.094-2.194-.094-6.464s.019-4.782.094-6.464c.069-1.563.331-2.407.55-2.969.256-.694.663-1.325 1.2-1.838.519-.531 1.144-.938 1.838-1.194.563-.219 1.413-.481 2.969-.55 1.688-.075 2.194-.094 6.464-.094 4.276 0 4.782.019 6.464.094 1.563.069 2.407.331 2.969.55.694.256 1.325.662 1.838 1.194.531.519.938 1.144 1.194 1.838.219.563.481 1.413.55 2.969.075 1.688.094 2.194.094 6.464s-.019 4.77-.094 6.458z"/>
      <path d="M16.059 7.783c-4.538 0-8.22 3.682-8.22 8.22s3.682 8.22 8.22 8.22c4.539 0 8.22-3.682 8.22-8.22s-3.682-8.22-8.22-8.22zm0 13.552c-2.944 0-5.332-2.388-5.332-5.332s2.388-5.332 5.332-5.332c2.945 0 5.332 2.388 5.332 5.332s-2.388 5.332-5.332 5.332zM26.524 7.458c0 1.06-.859 1.919-1.919 1.919s-1.919-.859-1.919-1.919.859-1.919 1.919-1.919 1.919.859 1.919 1.919z"/>
    </symbol>
    <symbol id="icon-linkedin" viewBox="0 0 32 32">
      <path d="M31.992 32v-.001H32V20.263c0-5.741-1.236-10.164-7.948-10.164-3.227 0-5.392 1.771-6.276 3.449h-.093v-2.913h-6.364v21.364h6.627V21.42c0-2.785.528-5.479 3.977-5.479 3.399 0 3.449 3.179 3.449 5.657v10.401h6.62zM.528 10.636h6.635V32H.528V10.636zM3.843 0C1.722 0 0 1.721 0 3.843s1.721 3.879 3.843 3.879c2.121 0 3.843-1.757 3.843-3.879C7.685 1.722 5.963 0 3.843 0z"/>
    </symbol>
    <symbol id="icon-close1" viewBox="0 0 32 32">
      <path d="M32 3.223 28.777 0 16 12.777 3.223 0 0 3.223 12.777 16 0 28.777 3.223 32 16 19.223 28.777 32 32 28.777 19.223 16 32 3.223z"/>
    </symbol>
    <symbol id="icon-check" viewBox="0 0 40 32">
      <path fill="#f4f4fd" d="M33.782 1.02a3.668 3.668 0 0 1 5.115.039 3.712 3.712 0 0 1 .135 5.141L19.454 30.817a3.674 3.674 0 0 1-4.074.914 3.675 3.675 0 0 1-1.226-.815L1.17 17.862A3.693 3.693 0 0 1-.001 15.22a3.714 3.714 0 0 1 1.077-2.682 3.664 3.664 0 0 1 4.1-.763 3.68 3.68 0 0 1 1.195.857l10.275 10.325 17.042-21.83c.031-.038.063-.074.098-.109h-.005z" style="fill:var(--color1, #f4f4fd)"/>
    </symbol>
    <symbol id="icon-mail" viewBox="0 0 43 32">
      <path d="M37.333 0h-32c-2.2 0-3.98 1.8-3.98 4l-.02 24c0 2.2 1.8 4 4 4h32c2.2 0 4-1.8 4-4V4c0-2.2-1.8-4-4-4zm-.8 8.5-14.14 8.84c-.64.4-1.48.4-2.12 0L6.133 8.5c-.5-.32-.8-.86-.8-1.44 0-1.34 1.46-2.14 2.6-1.44l13.4 8.38 13.4-8.38c1.14-.7 2.6.1 2.6 1.44 0 .58-.3 1.12-.8 1.44z"/>
    </symbol>
    <symbol id="icon-frame-3" viewBox="0 0 32 32">
      <path fill="#fff" d="m32 2.667-32 15 10.227 3.156L26 8.5 14.002 21.988l.01.003-.012-.003v7.345l5.735-5.576L27 25.999l5-23.333z" style="fill:var(--color2, #fff)"/>
    </symbol>
    <symbol id="icon-person" viewBox="0 0 32 32">
      <path d="M16 16c2.947 0 5.333-2.387 5.333-5.333S18.946 5.334 16 5.334c-2.947 0-5.333 2.387-5.333 5.333S13.054 16 16 16zm0 2.667c-3.56 0-10.667 1.787-10.667 5.333v1.333c0 .733.6 1.333 1.333 1.333h18.667c.733 0 1.333-.6 1.333-1.333V24c0-3.547-7.107-5.333-10.667-5.333z"/>
    </symbol>
    <symbol id="icon-tel" viewBox="0 0 32 32">
      <path d="m28.865 21.822-4.525-.517a3.543 3.543 0 0 0-2.921 1.015l-3.278 3.278A26.8 26.8 0 0 1 6.402 13.859l3.296-3.296a3.545 3.545 0 0 0 1.015-2.921l-.517-4.489A3.566 3.566 0 0 0 6.651 0H3.569C1.556 0-.118 1.675.006 3.687.95 18.9 13.117 31.049 28.312 31.993c2.013.125 3.687-1.55 3.687-3.563v-3.082c.018-1.799-1.336-3.313-3.135-3.527z"/>
    </symbol>
  </defs>
</svg>
